<?xml version="1.0" encoding="utf-8"?><svg width="128" height="64" viewBox="0 0 128 64" xmlns="http://www.w3.org/2000/svg" xmlns:xlink="http://www.w3.org/1999/xlink"><view id="female" viewBox="0 0 64 64"/><svg width="64" height="64" viewBox="0 0 64.000001 64.000001"><path d="M33.04 45.317c12.017 0 20.916-9.71 20.916-21.727 0-12.019-9.743-21.761-21.761-21.761-12.018 0-21.761 9.742-21.761 21.76 0 12.019 8.544 21.745 20.562 21.745L31 55.04l-10.931-.034v2L31 57.041V63h2v-5.959l10.931.034v-2L33 55.041zm-.756-41.324c10.774 0 19.508 8.734 19.508 19.508s-8.734 19.508-19.508 19.508S12.776 34.275 12.776 23.5 21.51 3.993 32.284 3.993z" fill="currentColor"/></svg><view id="smile" viewBox="64 0 64 64"/><svg width="64" height="64" viewBox="0 0 64.000001 64.000001" x="64"><g transform="translate(0 -988.362)" fill="currentColor"><path d="M32.1 988.662a31.6 31.6 0 0 0-31.601 31.601 31.6 31.6 0 0 0 31.6 31.6 31.6 31.6 0 0 0 31.601-31.6 31.6 31.6 0 0 0-31.6-31.6zm.128 3.143a28.33 28.33 0 0 1 28.33 28.33 28.33 28.33 0 0 1-28.33 28.328A28.33 28.33 0 0 1 3.9 1020.134a28.33 28.33 0 0 1 28.33-28.329z"/><circle cx="19.128" cy="1009.745" r="5.066"/><circle cx="43.779" cy="1009.745" r="5.066"/><path d="M14.224 1029.491c17.574 13.266 20.819 12.704 36.516-.127-17.565 5.459-18.457 6.033-36.516.127z"/></g></svg></svg>