<svg xmlns="http://www.w3.org/2000/svg" width="64" height="64" viewBox="0 0 64.000001 64.000001"><g transform="translate(0 -988.362)" fill="currentColor"><path d="M32.1 988.662a31.6 31.6 0 0 0-31.601 31.601 31.6 31.6 0 0 0 31.6 31.6 31.6 31.6 0 0 0 31.601-31.6 31.6 31.6 0 0 0-31.6-31.6zm.128 3.143a28.33 28.33 0 0 1 28.33 28.33 28.33 28.33 0 0 1-28.33 28.328A28.33 28.33 0 0 1 3.9 1020.134a28.33 28.33 0 0 1 28.33-28.329z"/><circle cx="19.128" cy="1009.745" r="5.066"/><circle cx="43.779" cy="1009.745" r="5.066"/><path d="M14.425 1036.805c17.574-11.265 20.819-10.788 36.516.107-17.564-4.635-18.457-5.123-36.516-.107z"/></g></svg>