<svg xmlns="http://www.w3.org/2000/svg" width="64" height="64" viewBox="0 0 64.000001 64.000001"><g transform="translate(0 -988.362)" fill="black"><path d="M32.1 988.662a31.6 31.6 0 0 0-31.601 31.601 31.6 31.6 0 0 0 31.6 31.6 31.6 31.6 0 0 0 31.601-31.6 31.6 31.6 0 0 0-31.6-31.6zm.128 3.143a28.33 28.33 0 0 1 28.33 28.33 28.33 28.33 0 0 1-28.33 28.328A28.33 28.33 0 0 1 3.9 1020.134a28.33 28.33 0 0 1 28.33-28.329z"/><circle cx="19.128" cy="1009.745" r="5.066"/><circle cx="43.779" cy="1009.745" r="5.066"/><path d="M14.224 1029.491c17.574 13.266 20.819 12.704 36.516-.127-17.565 5.459-18.457 6.033-36.516.127z"/></g></svg>