<?xml version="1.0" encoding="UTF-8" standalone="no"?>
<!-- Created with Inkscape (http://www.inkscape.org/) -->

<svg
   xmlns:dc="http://purl.org/dc/elements/1.1/"
   xmlns:cc="http://creativecommons.org/ns#"
   xmlns:rdf="http://www.w3.org/1999/02/22-rdf-syntax-ns#"
   xmlns:svg="http://www.w3.org/2000/svg"
   xmlns="http://www.w3.org/2000/svg"
   xmlns:sodipodi="http://sodipodi.sourceforge.net/DTD/sodipodi-0.dtd"
   xmlns:inkscape="http://www.inkscape.org/namespaces/inkscape"
   width="64"
   height="64"
   viewBox="0 0 64.000001 64.000001"
   id="svg2"
   version="1.1"
   inkscape:version="0.91 r13725"
   sodipodi:docname="smile-o.svg">
  <defs
     id="defs4" />
  <sodipodi:namedview
     id="base"
     pagecolor="#ffffff"
     bordercolor="#666666"
     borderopacity="1.0"
     inkscape:pageopacity="0.0"
     inkscape:pageshadow="2"
     inkscape:zoom="5.2338461"
     inkscape:cx="77.693713"
     inkscape:cy="50.937327"
     inkscape:document-units="px"
     inkscape:current-layer="layer1"
     showgrid="false"
     inkscape:window-width="1920"
     inkscape:window-height="1154"
     inkscape:window-x="2820"
     inkscape:window-y="240"
     inkscape:window-maximized="1"
     units="px" />
  <metadata
     id="metadata7">
    <rdf:RDF>
      <cc:Work
         rdf:about="">
        <dc:format>image/svg+xml</dc:format>
        <dc:type
           rdf:resource="http://purl.org/dc/dcmitype/StillImage" />
        <dc:title></dc:title>
      </cc:Work>
    </rdf:RDF>
  </metadata>
  <g
     inkscape:label="Ebene 1"
     inkscape:groupmode="layer"
     id="layer1"
     transform="translate(0,-988.36216)">
    <path
       style="fill:currentColor;stroke-width:0"
       id="outer-circle"
       inkscape:connector-curvature="0"
       d="M 32.099322,988.66241 A 31.600852,31.600852 0 0 0 0.49853064,1020.2632 31.600852,31.600852 0 0 0 32.099322,1051.8639 31.600852,31.600852 0 0 0 63.700121,1020.2632 31.600852,31.600852 0 0 0 32.099322,988.66241 Z m 0.128968,3.14263 a 28.329258,28.329258 0 0 1 28.3292,28.32916 28.329258,28.329258 0 0 1 -28.3292,28.3291 A 28.329258,28.329258 0 0 1 3.8990902,1020.1342 28.329258,28.329258 0 0 1 32.22829,991.80504 Z" />
    <circle
       style="fill:currentColor;stroke-width:0"
       id="eye-left"
       cx="19.128433"
       cy="1009.7446"
       r="5.0662065" />
    <circle
       style="fill:currentColor;stroke-width:0"
       id="eye-right"
       cx="43.779404"
       cy="1009.7446"
       r="5.0662065"
       inkscape:transform-center-x="22.973153"
       inkscape:transform-center-y="-1.2905765" />
    <path
       style="fill:currentColor;stroke-width:0"
       d="m 14.224051,1029.4911 c 17.573534,13.2658 20.818698,12.7035 36.516107,-0.1269 -17.564939,5.4587 -18.457164,6.033 -36.516107,0.1269 z"
       id="smile"
       inkscape:connector-curvature="0"
       sodipodi:nodetypes="ccc" />
  </g>
</svg>
